solid OpenSCAD_Model
  facet normal -1 0 0
    outer loop
      vertex 0 0 0
      vertex 0 17.2 8
      vertex 0 17.2 0
    endloop
  endfacet
  facet normal -1 -0 0
    outer loop
      vertex 0 17.2 8
      vertex 0 0 0
      vertex 0 0 8
    endloop
  endfacet
  facet normal 0 0 1
    outer loop
      vertex 26.2 17.2 8
      vertex 25.2 16.2 8
      vertex 26.2 0 8
    endloop
  endfacet
  facet normal 0 0 1
    outer loop
      vertex 26.2 17.2 8
      vertex 1 16.2 8
      vertex 25.2 16.2 8
    endloop
  endfacet
  facet normal 0 0 1
    outer loop
      vertex 1 16.2 8
      vertex 0 17.2 8
      vertex 1 1 8
    endloop
  endfacet
  facet normal -0 0 1
    outer loop
      vertex 0 17.2 8
      vertex 1 16.2 8
      vertex 26.2 17.2 8
    endloop
  endfacet
  facet normal -0 0 1
    outer loop
      vertex 25.2 1 8
      vertex 26.2 0 8
      vertex 25.2 16.2 8
    endloop
  endfacet
  facet normal -0 0 1
    outer loop
      vertex 1 1 8
      vertex 26.2 0 8
      vertex 25.2 1 8
    endloop
  endfacet
  facet normal 0 0 1
    outer loop
      vertex 1 1 8
      vertex 0 0 8
      vertex 26.2 0 8
    endloop
  endfacet
  facet normal 0 0 1
    outer loop
      vertex 0 0 8
      vertex 1 1 8
      vertex 0 17.2 8
    endloop
  endfacet
  facet normal 1 -0 0
    outer loop
      vertex 26.2 0 8
      vertex 26.2 17.2 0
      vertex 26.2 17.2 8
    endloop
  endfacet
  facet normal 1 0 0
    outer loop
      vertex 26.2 17.2 0
      vertex 26.2 0 8
      vertex 26.2 0 0
    endloop
  endfacet
  facet normal 0 0 -1
    outer loop
      vertex 26.2 0 0
      vertex 24.7 1.5 0
      vertex 26.2 17.2 0
    endloop
  endfacet
  facet normal 0 0 -1
    outer loop
      vertex 26.2 0 0
      vertex 1.5 1.5 0
      vertex 24.7 1.5 0
    endloop
  endfacet
  facet normal -0 0 -1
    outer loop
      vertex 1.5 1.5 0
      vertex 0 0 0
      vertex 1.5 15.7 0
    endloop
  endfacet
  facet normal 0 0 -1
    outer loop
      vertex 0 0 0
      vertex 1.5 1.5 0
      vertex 26.2 0 0
    endloop
  endfacet
  facet normal 0 0 -1
    outer loop
      vertex 24.7 15.7 0
      vertex 26.2 17.2 0
      vertex 24.7 1.5 0
    endloop
  endfacet
  facet normal 0 0 -1
    outer loop
      vertex 1.5 15.7 0
      vertex 26.2 17.2 0
      vertex 24.7 15.7 0
    endloop
  endfacet
  facet normal 0 0 -1
    outer loop
      vertex 1.5 15.7 0
      vertex 0 17.2 0
      vertex 26.2 17.2 0
    endloop
  endfacet
  facet normal 0 0 -1
    outer loop
      vertex 0 17.2 0
      vertex 1.5 15.7 0
      vertex 0 0 0
    endloop
  endfacet
  facet normal 0 -1 0
    outer loop
      vertex 0 0 0
      vertex 26.2 0 8
      vertex 0 0 8
    endloop
  endfacet
  facet normal 0 -1 -0
    outer loop
      vertex 26.2 0 8
      vertex 0 0 0
      vertex 26.2 0 0
    endloop
  endfacet
  facet normal 0 1 -0
    outer loop
      vertex 26.2 17.2 0
      vertex 0 17.2 8
      vertex 26.2 17.2 8
    endloop
  endfacet
  facet normal 0 1 0
    outer loop
      vertex 0 17.2 8
      vertex 26.2 17.2 0
      vertex 0 17.2 0
    endloop
  endfacet
  facet normal 1 -0 0
    outer loop
      vertex 1.5 1.5 3
      vertex 1.5 15.7 0
      vertex 1.5 15.7 3
    endloop
  endfacet
  facet normal 1 0 0
    outer loop
      vertex 1.5 15.7 0
      vertex 1.5 1.5 3
      vertex 1.5 1.5 0
    endloop
  endfacet
  facet normal 0 0 1
    outer loop
      vertex 25.2 16.2 3
      vertex 24.7 15.7 3
      vertex 25.2 1 3
    endloop
  endfacet
  facet normal 0 0 1
    outer loop
      vertex 25.2 16.2 3
      vertex 1.5 15.7 3
      vertex 24.7 15.7 3
    endloop
  endfacet
  facet normal 0 0 1
    outer loop
      vertex 1.5 15.7 3
      vertex 1 16.2 3
      vertex 1.5 1.5 3
    endloop
  endfacet
  facet normal -0 0 1
    outer loop
      vertex 1 16.2 3
      vertex 1.5 15.7 3
      vertex 25.2 16.2 3
    endloop
  endfacet
  facet normal -0 0 1
    outer loop
      vertex 24.7 1.5 3
      vertex 25.2 1 3
      vertex 24.7 15.7 3
    endloop
  endfacet
  facet normal -0 0 1
    outer loop
      vertex 1.5 1.5 3
      vertex 25.2 1 3
      vertex 24.7 1.5 3
    endloop
  endfacet
  facet normal 0 0 1
    outer loop
      vertex 1.5 1.5 3
      vertex 1 1 3
      vertex 25.2 1 3
    endloop
  endfacet
  facet normal 0 0 1
    outer loop
      vertex 1 1 3
      vertex 1.5 1.5 3
      vertex 1 16.2 3
    endloop
  endfacet
  facet normal -1 0 0
    outer loop
      vertex 24.7 1.5 0
      vertex 24.7 15.7 3
      vertex 24.7 15.7 0
    endloop
  endfacet
  facet normal -1 -0 0
    outer loop
      vertex 24.7 15.7 3
      vertex 24.7 1.5 0
      vertex 24.7 1.5 3
    endloop
  endfacet
  facet normal 0 -1 0
    outer loop
      vertex 1.5 15.7 0
      vertex 24.7 15.7 3
      vertex 1.5 15.7 3
    endloop
  endfacet
  facet normal 0 -1 -0
    outer loop
      vertex 24.7 15.7 3
      vertex 1.5 15.7 0
      vertex 24.7 15.7 0
    endloop
  endfacet
  facet normal 0 1 -0
    outer loop
      vertex 24.7 1.5 0
      vertex 1.5 1.5 3
      vertex 24.7 1.5 3
    endloop
  endfacet
  facet normal 0 1 0
    outer loop
      vertex 1.5 1.5 3
      vertex 24.7 1.5 0
      vertex 1.5 1.5 0
    endloop
  endfacet
  facet normal 1 -0 0
    outer loop
      vertex 1 1 8
      vertex 1 16.2 3
      vertex 1 16.2 8
    endloop
  endfacet
  facet normal 1 0 0
    outer loop
      vertex 1 16.2 3
      vertex 1 1 8
      vertex 1 1 3
    endloop
  endfacet
  facet normal -1 0 0
    outer loop
      vertex 25.2 1 3
      vertex 25.2 16.2 8
      vertex 25.2 16.2 3
    endloop
  endfacet
  facet normal -1 -0 0
    outer loop
      vertex 25.2 16.2 8
      vertex 25.2 1 3
      vertex 25.2 1 8
    endloop
  endfacet
  facet normal 0 1 -0
    outer loop
      vertex 25.2 1 3
      vertex 1 1 8
      vertex 25.2 1 8
    endloop
  endfacet
  facet normal 0 1 0
    outer loop
      vertex 1 1 8
      vertex 25.2 1 3
      vertex 1 1 3
    endloop
  endfacet
  facet normal 0 -1 0
    outer loop
      vertex 1 16.2 3
      vertex 25.2 16.2 8
      vertex 1 16.2 8
    endloop
  endfacet
  facet normal 0 -1 -0
    outer loop
      vertex 25.2 16.2 8
      vertex 1 16.2 3
      vertex 25.2 16.2 3
    endloop
  endfacet
endsolid OpenSCAD_Model
