solid OpenSCAD_Model
  facet normal -1 0 0
    outer loop
      vertex 0 0 0
      vertex 0 15.8 7.2
      vertex 0 15.8 0
    endloop
  endfacet
  facet normal -1 -0 0
    outer loop
      vertex 0 15.8 7.2
      vertex 0 0 0
      vertex 0 0 7.2
    endloop
  endfacet
  facet normal 0 0 1
    outer loop
      vertex 16.2 15.8 7.2
      vertex 15.2 14.8 7.2
      vertex 16.2 0 7.2
    endloop
  endfacet
  facet normal 0 0 1
    outer loop
      vertex 16.2 15.8 7.2
      vertex 1 14.8 7.2
      vertex 15.2 14.8 7.2
    endloop
  endfacet
  facet normal -0 0 1
    outer loop
      vertex 0 15.8 7.2
      vertex 1 14.8 7.2
      vertex 16.2 15.8 7.2
    endloop
  endfacet
  facet normal 0 0 1
    outer loop
      vertex 0 0 7.2
      vertex 1 14.8 7.2
      vertex 0 15.8 7.2
    endloop
  endfacet
  facet normal 0 0 1
    outer loop
      vertex 1 14.8 7.2
      vertex 0 0 7.2
      vertex 1 0 7.2
    endloop
  endfacet
  facet normal 0 0 1
    outer loop
      vertex 16.2 0 7.2
      vertex 15.2 14.8 7.2
      vertex 15.2 0 7.2
    endloop
  endfacet
  facet normal 1 -0 0
    outer loop
      vertex 16.2 0 7.2
      vertex 16.2 15.8 0
      vertex 16.2 15.8 7.2
    endloop
  endfacet
  facet normal 1 0 0
    outer loop
      vertex 16.2 15.8 0
      vertex 16.2 0 7.2
      vertex 16.2 0 0
    endloop
  endfacet
  facet normal 0 1 -0
    outer loop
      vertex 16.2 15.8 0
      vertex 0 15.8 7.2
      vertex 16.2 15.8 7.2
    endloop
  endfacet
  facet normal 0 1 0
    outer loop
      vertex 0 15.8 7.2
      vertex 16.2 15.8 0
      vertex 0 15.8 0
    endloop
  endfacet
  facet normal 0 0 -1
    outer loop
      vertex 0 0 0
      vertex 16.2 15.8 0
      vertex 16.2 0 0
    endloop
  endfacet
  facet normal -0 0 -1
    outer loop
      vertex 16.2 15.8 0
      vertex 0 0 0
      vertex 0 15.8 0
    endloop
  endfacet
  facet normal 0 -1 0
    outer loop
      vertex 0 0 7.2
      vertex 1 0 3
      vertex 1 0 7.2
    endloop
  endfacet
  facet normal 0 -1 -0
    outer loop
      vertex 1 0 3
      vertex 0 0 0
      vertex 15.2 0 3
    endloop
  endfacet
  facet normal 0 -1 0
    outer loop
      vertex 0 0 0
      vertex 1 0 3
      vertex 0 0 7.2
    endloop
  endfacet
  facet normal 0 -1 0
    outer loop
      vertex 15.2 0 3
      vertex 16.2 0 7.2
      vertex 15.2 0 7.2
    endloop
  endfacet
  facet normal 0 -1 0
    outer loop
      vertex 15.2 0 3
      vertex 16.2 0 0
      vertex 16.2 0 7.2
    endloop
  endfacet
  facet normal 0 -1 0
    outer loop
      vertex 16.2 0 0
      vertex 15.2 0 3
      vertex 0 0 0
    endloop
  endfacet
  facet normal 1 0 0
    outer loop
      vertex 1 14.8 7.2
      vertex 1 1 3
      vertex 1 14.8 1
    endloop
  endfacet
  facet normal 1 -0 0
    outer loop
      vertex 1 0 7.2
      vertex 1 1 3
      vertex 1 14.8 7.2
    endloop
  endfacet
  facet normal 1 0 0
    outer loop
      vertex 1 1 3
      vertex 1 0 7.2
      vertex 1 0 3
    endloop
  endfacet
  facet normal 1 0 0
    outer loop
      vertex 1 14.8 1
      vertex 1 1 3
      vertex 1 1 1
    endloop
  endfacet
  facet normal -1 0 0
    outer loop
      vertex 15.2 1 3
      vertex 15.2 14.8 1
      vertex 15.2 1 1
    endloop
  endfacet
  facet normal -1 0 0
    outer loop
      vertex 15.2 14.8 1
      vertex 15.2 1 3
      vertex 15.2 14.8 7.2
    endloop
  endfacet
  facet normal -1 0 0
    outer loop
      vertex 15.2 0 7.2
      vertex 15.2 1 3
      vertex 15.2 0 3
    endloop
  endfacet
  facet normal -1 0 0
    outer loop
      vertex 15.2 1 3
      vertex 15.2 0 7.2
      vertex 15.2 14.8 7.2
    endloop
  endfacet
  facet normal -0 0 1
    outer loop
      vertex 1 14.8 1
      vertex 15.2 1 1
      vertex 15.2 14.8 1
    endloop
  endfacet
  facet normal 0 0 1
    outer loop
      vertex 15.2 1 1
      vertex 1 14.8 1
      vertex 1 1 1
    endloop
  endfacet
  facet normal 0 1 -0
    outer loop
      vertex 15.2 1 1
      vertex 1 1 3
      vertex 15.2 1 3
    endloop
  endfacet
  facet normal 0 1 0
    outer loop
      vertex 1 1 3
      vertex 15.2 1 1
      vertex 1 1 1
    endloop
  endfacet
  facet normal 0 -1 0
    outer loop
      vertex 1 14.8 1
      vertex 15.2 14.8 7.2
      vertex 1 14.8 7.2
    endloop
  endfacet
  facet normal 0 -1 -0
    outer loop
      vertex 15.2 14.8 7.2
      vertex 1 14.8 1
      vertex 15.2 14.8 1
    endloop
  endfacet
  facet normal -0 0 1
    outer loop
      vertex 1 1 3
      vertex 15.2 0 3
      vertex 15.2 1 3
    endloop
  endfacet
  facet normal 0 0 1
    outer loop
      vertex 15.2 0 3
      vertex 1 1 3
      vertex 1 0 3
    endloop
  endfacet
endsolid OpenSCAD_Model
